{"title":"Ambarsariya 2016 Movies DVDScr XViD AAC New +Sample ~ ☻rDX☻","uid":14041009,"size":738481624,"categoryP":"video","categoryS":"movies","magnet":"?xt=urn:btih:0923269f8813ca7567bf6431760fc1e1cb924aa2&amp;dn=Ambarsariya+2016+Movies+DVDScr+XViD+AAC+New+%2BSample+%7E+%E2%98%BBrDX%E2%98%BB&amp;tr=udp%3A%2F%2Ftracker.leechers-paradise.org%3A6969&amp;tr=udp%3A%2F%2Fzer0day.ch%3A1337&amp;tr=udp%3A%2F%2Fopen.demonii.com%3A1337&amp;tr=udp%3A%2F%2Ftracker.coppersurfer.tk%3A6969&amp;tr=udp%3A%2F%2Fexodus.desync.com%3A6969","seeders":1,"leechers":2,"uploader":"basicssom","files":2,"time":1459022915,"description":"----------------------------------------------------------------\r\nAmbarsariya 2016 Punjabi Movies DVDScr XViD AAC New Source with Sample ~ ☻rDX☻\r\n\r\nSCREEN SHOTS &amp; POSTER:\r\n  \nhttp://mobileshosting.com/2016/3/samsung/index.htm  \nhttp://mobileshosting.com/2016/3/samsung/1.html  \nhttp://mobileshosting.com/2016/3/samsung/2.html  \nhttp://mobileshosting.com/2016/3/samsung/3.html  \nhttp://mobileshosting.com/2016/3/samsung/4.html  \nhttp://mobileshosting.com/2016/3/samsung/5.html  \nhttp://mobileshosting.com/2016/3/samsung/6.html  \nhttp://mobileshosting.com/2016/3/samsung/7.html  \nhttp://mobileshosting.com/2016/3/samsung/8.html  \nhttp://mobileshosting.com/2016/3/samsung/9.html  \nhttp://mobileshosting.com/2016/3/samsung/10.html\r\n\r\nFormat                                   : Matroska\r\nFormat version                           : Version 4 / Version 2\r\nFile size                                : 688 MiB\r\nDuration                                 : 2h 14mn\r\nOverall bit rate                         : 713 Kbps\r\nMovie name                               : Ambarsariya 2016 Punjabi Movies DVDScr XViD AAC New Source ☻rDX☻\r\n\r\nVideo\r\nID                                       : 1\r\nFormat                                   : MPEG-4 Visual\r\nFormat profile                           : Advanced   \r\nFormat settings, BVOP                    : Yes\r\nFormat settings, QPel                    : No\r\nFormat settings, GMC                     : No warppoints\r\nFormat settings, Matrix                  : Default (H.263)\r\nCodec ID                                 : V_MS/VFW/FOURCC / XVID\r\nCodec ID/Hint                            : XviD\r\nDuration                                 : 2h 14mn\r\nBit rate                                 : 619 Kbps\r\nWidth                                    : 640 pixels\r\nHeight                                   : 272 pixels\r\nDisplay aspect ratio                     : 2.35:1\r\nFrame rate mode                          : Constant\r\nFrame rate                               : 23.976 fps\r\nColor space                              : YUV\r\nChroma subsampling                       : 4:2:0\r\nBit depth                                : 8 bits\r\nScan type                                : Progressive\r\nCompression mode                         : Lossy\r\nBits/(Pixel*Frame)                       : 0.148\r\nStream size                              : 597 MiB (87%)\r\nTitle                                    : ☻rDX☻\r\nWriting library                          : XviD 67\r\nDefault                                  : Yes\r\nForced                                   : No\r\n\r\nAudio\r\nID                                       : 2\r\nFormat                                   : MPEG Audio\r\nFormat version                           : Version 1\r\nFormat profile                           : Layer 3\r\nMode                                     : Joint stereo\r\nMode extension                           : MS Stereo\r\nCodec ID                                 : A_MPEG/L3\r\nCodec ID/Hint                            : MP3\r\nDuration                                 : 2h 14mn\r\nBit rate mode                            : Constant\r\nBit rate                                 : 80.0 Kbps\r\nChannel(s)                               : 2 channels\r\nSampling rate                            : 32.0 KHz\r\nCompression mode                         : Lossy\r\nStream size                              : 77.2 MiB (11%)\r\nTitle                                    : ☻rDX☻\r\nDefault                                  : Yes\r\nForced                                   : No\r\n\r\nIMDB \nhttp://www.imdb.com/title/tt5565818/","torrent":{"xt":"urn:btih:0923269f8813ca7567bf6431760fc1e1cb924aa2","amp;dn":"Ambarsariya+2016+Movies+DVDScr+XViD+AAC+New+%2BSample+%7E+%E2%98%BBrDX%E2%98%BB","amp;tr":["udp%3A%2F%2Ftracker.leechers-paradise.org%3A6969","udp%3A%2F%2Fzer0day.ch%3A1337","udp%3A%2F%2Fopen.demonii.com%3A1337","udp%3A%2F%2Ftracker.coppersurfer.tk%3A6969","udp%3A%2F%2Fexodus.desync.com%3A6969"],"infoHash":"0923269f8813ca7567bf6431760fc1e1cb924aa2","infoHashBuffer":{"type":"Buffer","data":[9,35,38,159,136,19,202,117,103,191,100,49,118,15,193,225,203,146,74,162]},"announce":[],"urlList":[]}}